<svg xmlns="http://www.w3.org/2000/svg" width="40" height="40" viewBox="0 0 40 40">
  <g id="grid-view" transform="translate(-1807 -172)">
    <rect id="Rectangle_56" data-name="Rectangle 56" width="40" height="40" rx="5" transform="translate(1807 172)" fill="#fff"/>
    <path id="Path_23" data-name="Path 23" d="M4,6A2,2,0,0,1,6,4H8a2,2,0,0,1,2,2V8a2,2,0,0,1-2,2H6A2,2,0,0,1,4,8ZM14,6a2,2,0,0,1,2-2h2a2,2,0,0,1,2,2V8a2,2,0,0,1-2,2H16a2,2,0,0,1-2-2ZM4,16a2,2,0,0,1,2-2H8a2,2,0,0,1,2,2v2a2,2,0,0,1-2,2H6a2,2,0,0,1-2-2Zm10,0a2,2,0,0,1,2-2h2a2,2,0,0,1,2,2v2a2,2,0,0,1-2,2H16a2,2,0,0,1-2-2Z" transform="translate(1815.5 180.5)" fill="none" stroke="#2b5468" stroke-linecap="round" stroke-linejoin="round" stroke-width="2"/>
  </g>
</svg>
