<svg id="india" xmlns="http://www.w3.org/2000/svg" width="14.418" height="10.03" viewBox="0 0 14.418 10.03">
  <path id="Path_1325" data-name="Path 1325" d="M.787,0H13.631a.794.794,0,0,1,.787.792V9.238a.8.8,0,0,1-.792.792H.787A.8.8,0,0,1,0,9.238V.792A.794.794,0,0,1,.787,0Z" fill="#f93"/>
  <path id="Path_1326" data-name="Path 1326" d="M0,28.49H14.418v3.344H0Z" transform="translate(0 -25.147)" fill="#fff"/>
  <path id="Path_1327" data-name="Path 1327" d="M0,56.99H14.418v2.551a.8.8,0,0,1-.792.792H.787A.8.8,0,0,1,0,59.541V56.99Z" transform="translate(0 -50.303)" fill="#128807"/>
  <path id="Path_1328" data-name="Path 1328" d="M52.715,32.678a1.338,1.338,0,1,0-1.338,1.338,1.337,1.337,0,0,0,1.338-1.338Z" transform="translate(-44.168 -27.663)" fill="#008"/>
  <path id="Path_1329" data-name="Path 1329" d="M53.81,33.94a1.17,1.17,0,1,0-1.17,1.17,1.169,1.169,0,0,0,1.17-1.17Z" transform="translate(-45.431 -28.925)" fill="#fff"/>
  <path id="Path_1330" data-name="Path 1330" d="M59.917,40.975a.234.234,0,1,0-.234.234.234.234,0,0,0,.234-.234Z" transform="translate(-52.474 -35.96)" fill="#008"/>
  <path id="Path_1331" data-name="Path 1331" d="M70.942,43.611a.059.059,0,1,0-.066.05.059.059,0,0,0,.066-.05Z" transform="translate(-62.514 -38.435)" fill="#008"/>
  <path id="Path_1332" data-name="Path 1332" d="M61.14,44.916l.04-.7-.04-.334-.04.334Z" transform="translate(-53.931 -38.731)" fill="#008"/>
  <path id="Path_1333" data-name="Path 1333" d="M70.263,46.141a.058.058,0,1,0-.076.032.058.058,0,0,0,.076-.032Z" transform="translate(-61.919 -40.656)"/>
  <path id="Path_1334" data-name="Path 1334" d="M58.86,44.841l.221-.668.048-.333L59,44.153Z" transform="translate(-51.954 -38.696)"/>
  <path id="Path_1335" data-name="Path 1335" d="M68.96,48.409a.059.059,0,1,0-.082.011.059.059,0,0,0,.082-.011Z" transform="translate(-60.775 -42.646)"/>
  <path id="Path_1336" data-name="Path 1336" d="M56.45,44.628l.386-.588.133-.31-.2.269Z" transform="translate(-49.826 -38.599)"/>
  <path id="Path_1337" data-name="Path 1337" d="M67.1,50.26a.059.059,0,1,0-.082-.011.059.059,0,0,0,.082.011Z" transform="translate(-59.143 -44.27)"/>
  <path id="Path_1338" data-name="Path 1338" d="M54.39,44.282l.525-.468.208-.264-.264.208Z" transform="translate(-48.008 -38.44)"/>
  <path id="Path_1339" data-name="Path 1339" d="M64.841,51.573a.058.058,0,1,0-.076-.032.059.059,0,0,0,.076.032Z" transform="translate(-57.162 -45.422)"/>
  <path id="Path_1340" data-name="Path 1340" d="M52.8,43.829l.629-.317.269-.2-.31.133Z" transform="translate(-46.605 -38.228)"/>
  <path id="Path_1341" data-name="Path 1341" d="M62.313,52.243a.059.059,0,1,0-.066-.05.057.057,0,0,0,.066.05Z" transform="translate(-54.943 -46.01)"/>
  <path id="Path_1342" data-name="Path 1342" d="M51.81,43.308l.689-.143.312-.124-.333.047Z" transform="translate(-45.731 -37.99)"/>
  <path id="Path_1343" data-name="Path 1343" d="M59.688,52.242a.059.059,0,1,0-.05-.066.059.059,0,0,0,.05.066Z" transform="translate(-52.639 -46.009)"/>
  <path id="Path_1344" data-name="Path 1344" d="M51.47,42.44l.7.04.334-.04-.334-.04Z" transform="translate(-45.431 -37.425)"/>
  <path id="Path_1345" data-name="Path 1345" d="M57.161,51.573a.058.058,0,0,0,.076-.032.059.059,0,0,0-.032-.076.058.058,0,0,0-.076.032.06.06,0,0,0,.032.076Z" transform="translate(-50.422 -45.422)"/>
  <path id="Path_1346" data-name="Path 1346" d="M51.81,40.16l.668.221.333.048L52.5,40.3Z" transform="translate(-45.731 -35.448)"/>
  <path id="Path_1347" data-name="Path 1347" d="M54.894,50.26a.059.059,0,1,0-.011-.082.06.06,0,0,0,.011.082Z" transform="translate(-48.433 -44.27)"/>
  <path id="Path_1348" data-name="Path 1348" d="M52.8,37.75l.588.386.31.133-.269-.2Z" transform="translate(-46.605 -33.321)"/>
  <path id="Path_1349" data-name="Path 1349" d="M53.04,48.409a.059.059,0,1,0,.011-.082.059.059,0,0,0-.011.082Z" transform="translate(-46.806 -42.646)"/>
  <path id="Path_1350" data-name="Path 1350" d="M54.39,35.69l.468.525.264.209-.208-.265Z" transform="translate(-48.008 -31.502)"/>
  <path id="Path_1351" data-name="Path 1351" d="M51.729,46.141a.058.058,0,1,0,.032-.076.059.059,0,0,0-.032.076Z" transform="translate(-45.655 -40.656)"/>
  <path id="Path_1352" data-name="Path 1352" d="M56.45,34.1l.317.629.2.269-.133-.309Z" transform="translate(-49.826 -30.099)"/>
  <path id="Path_1353" data-name="Path 1353" d="M51.055,43.613a.059.059,0,1,0,.05-.066.057.057,0,0,0-.05.066Z" transform="translate(-45.064 -38.437)"/>
  <path id="Path_1354" data-name="Path 1354" d="M58.86,33.11,59,33.8l.126.312-.048-.333Z" transform="translate(-51.954 -29.225)"/>
  <path id="Path_1355" data-name="Path 1355" d="M51.055,40.988a.059.059,0,1,0,.066-.05.059.059,0,0,0-.066.05Z" transform="translate(-45.064 -36.133)"/>
  <path id="Path_1356" data-name="Path 1356" d="M61.14,32.77l-.04.7.04.334.04-.334Z" transform="translate(-53.931 -28.925)"/>
  <path id="Path_1357" data-name="Path 1357" d="M51.735,38.461a.058.058,0,0,0,.032.076.059.059,0,0,0,.076-.032.058.058,0,1,0-.108-.045Z" transform="translate(-45.661 -33.916)"/>
  <path id="Path_1358" data-name="Path 1358" d="M62,33.11l-.221.668-.048.333.126-.312Z" transform="translate(-54.487 -29.225)"/>
  <path id="Path_1359" data-name="Path 1359" d="M53.037,36.2a.059.059,0,1,0,.082-.011.058.058,0,0,0-.082.011Z" transform="translate(-46.803 -31.93)"/>
  <path id="Path_1360" data-name="Path 1360" d="M62.529,34.1l-.386.589L62.01,35l.2-.269Z" transform="translate(-54.734 -30.099)"/>
  <path id="Path_1361" data-name="Path 1361" d="M54.9,34.341a.059.059,0,1,0,.082.011.059.059,0,0,0-.082-.011Z" transform="translate(-48.436 -30.301)"/>
  <path id="Path_1362" data-name="Path 1362" d="M62.982,35.69l-.524.468-.208.265.264-.209Z" transform="translate(-54.946 -31.502)"/>
  <path id="Path_1363" data-name="Path 1363" d="M57.161,33.034a.06.06,0,0,0-.032.076.058.058,0,1,0,.108-.045.057.057,0,0,0-.076-.032Z" transform="translate(-50.422 -29.154)"/>
  <path id="Path_1364" data-name="Path 1364" d="M63.328,37.75l-.629.317-.269.2.31-.133Z" transform="translate(-55.105 -33.321)"/>
  <path id="Path_1365" data-name="Path 1365" d="M59.688,32.355a.059.059,0,0,0,.015.116.059.059,0,0,0,.05-.066.058.058,0,0,0-.066-.05Z" transform="translate(-52.639 -28.558)"/>
  <path id="Path_1366" data-name="Path 1366" d="M63.541,40.16l-.689.143-.312.126.333-.048Z" transform="translate(-55.202 -35.448)"/>
  <path id="Path_1367" data-name="Path 1367" d="M62.311,32.355a.059.059,0,1,0,.05.066.059.059,0,0,0-.05-.066Z" transform="translate(-54.941 -28.558)"/>
  <path id="Path_1368" data-name="Path 1368" d="M63.616,42.44l-.7-.04-.334.04.334.04Z" transform="translate(-55.237 -37.425)"/>
  <path id="Path_1369" data-name="Path 1369" d="M64.841,33.035a.058.058,0,0,0-.045.108.058.058,0,0,0,.045-.108Z" transform="translate(-57.162 -29.155)"/>
  <path id="Path_1370" data-name="Path 1370" d="M63.541,43.308l-.668-.221-.333-.047.312.124Z" transform="translate(-55.202 -37.99)"/>
  <path id="Path_1371" data-name="Path 1371" d="M67.1,34.337a.059.059,0,1,0,.011.082.058.058,0,0,0-.011-.082Z" transform="translate(-59.143 -30.297)"/>
  <path id="Path_1372" data-name="Path 1372" d="M63.328,43.829l-.588-.386-.31-.133.269.2Z" transform="translate(-55.105 -38.228)"/>
  <path id="Path_1373" data-name="Path 1373" d="M68.96,36.2a.059.059,0,1,0-.011.082.059.059,0,0,0,.011-.082Z" transform="translate(-60.775 -31.93)"/>
  <path id="Path_1374" data-name="Path 1374" d="M62.982,44.282l-.468-.524-.264-.208.208.264Z" transform="translate(-54.946 -38.44)"/>
  <path id="Path_1375" data-name="Path 1375" d="M70.273,38.457a.058.058,0,0,0-.108.045.06.06,0,0,0,.076.032.059.059,0,0,0,.032-.076Z" transform="translate(-61.928 -33.912)"/>
  <path id="Path_1376" data-name="Path 1376" d="M62.529,44.628,62.212,44l-.2-.269.133.31Z" transform="translate(-54.734 -38.599)"/>
  <path id="Path_1377" data-name="Path 1377" d="M70.943,40.988a.059.059,0,1,0-.05.066.057.057,0,0,0,.05-.066Z" transform="translate(-62.516 -36.133)"/>
  <path id="Path_1378" data-name="Path 1378" d="M62,44.841l-.143-.688-.126-.313.048.333Z" transform="translate(-54.487 -38.696)"/>
</svg>
