<svg xmlns="http://www.w3.org/2000/svg" width="20.048" height="19.254" viewBox="0 0 20.048 19.254">
  <path id="red-star" d="M10.746,2.9a.964.964,0,0,1,1.833,0l1.464,4.505a.964.964,0,0,0,.916.665H19.7a.965.965,0,0,1,.567,1.745L16.432,12.6a.964.964,0,0,0-.35,1.078l1.463,4.505a.963.963,0,0,1-1.483,1.078L12.23,16.478a.964.964,0,0,0-1.134,0L7.264,19.262a.963.963,0,0,1-1.483-1.078l1.463-4.505a.964.964,0,0,0-.35-1.078L3.062,9.817a.965.965,0,0,1,.567-1.745H8.366a.964.964,0,0,0,.917-.665L10.746,2.9Z" transform="translate(-1.639 -1.236)" fill="#fff" stroke="#d9534f" stroke-linecap="round" stroke-linejoin="round" stroke-width="2"/>
</svg>
