<svg xmlns="http://www.w3.org/2000/svg" width="33.867" height="36.011" viewBox="0 0 33.867 36.011">
  <g id="coin-wise-icon" transform="translate(-18734.535 2604.279)">
    <path id="Path_1500" data-name="Path 1500" d="M407.94,507.886l-9.181-6.666-10.179,5.017a12.318,12.318,0,0,0,19.36,1.649Z" transform="translate(18352.578 -3086.913)" fill="#2b5468"/>
    <path id="Path_1501" data-name="Path 1501" d="M378.119,349.73a12.316,12.316,0,0,0-10.482,16.358l10.178-5.017Z" transform="translate(18372.225 -2949.396)" fill="#2b5468"/>
    <path id="Path_1502" data-name="Path 1502" d="M517.96,356.451v.144l-.13,4.839,2.414-3.326,1.99-2.747a12.25,12.25,0,0,0-2.6-1.081l-1.608,2.214Z" transform="translate(18235.248 -2953.527)" fill="#2b5468"/>
    <path id="Path_1503" data-name="Path 1503" d="M598.406,487.157A12.267,12.267,0,0,0,599.964,481l-3.464,4.773Z" transform="translate(18163.834 -3068.559)" fill="#2b5468"/>
    <path id="Path_1504" data-name="Path 1504" d="M555.32,425.5l2.214,1.609,4.335-5.97.347-.478a12.3,12.3,0,0,0-1.19-3.021l-1.373,1.89Z" transform="translate(18201.217 -3011.042)" fill="#2b5468"/>
    <path id="Path_1505" data-name="Path 1505" d="M516.654,386.259l-.014.5,1.986,1.442,4.335-5.969,1.791-2.468a12.33,12.33,0,0,0-1.97-1.946l-2.037,2.8Z" transform="translate(18236.328 -2974.896)" fill="#2b5468"/>
    <path id="Path_1506" data-name="Path 1506" d="M366.122,305.244a3.716,3.716,0,0,1,.83.646,15.65,15.65,0,0,1,22.824,0,3.731,3.731,0,0,1,.83-.646c.058-.033.116-.064.175-.092-.15-.162-.3-.322-.461-.479a16.906,16.906,0,0,0-23.909,0q-.235.235-.461.479C366.006,305.181,366.064,305.211,366.122,305.244Z" transform="translate(18373.119 -2904)" fill="#2b5468"/>
    <path id="Path_1507" data-name="Path 1507" d="M551.845,428.738a3.711,3.711,0,0,1-.968.388,15.676,15.676,0,0,1-11.417,19.779,3.73,3.73,0,0,1,.142,1.032q0,.1-.005.2a16.94,16.94,0,0,0,12.424-21.512C551.961,428.664,551.9,428.7,551.845,428.738Z" transform="translate(18215.613 -3021.019)" fill="#2b5468"/>
    <path id="Path_1508" data-name="Path 1508" d="M330.368,449.928a3.73,3.73,0,0,1,.146-1.032A15.68,15.68,0,0,1,319.1,429.117a3.765,3.765,0,0,1-.967-.389c-.06-.034-.118-.071-.175-.108a16.931,16.931,0,0,0,12.415,21.513Z" transform="translate(18417.377 -3021.01)" fill="#2b5468"/>
    <path id="Path_1509" data-name="Path 1509" d="M319.618,369.545a2.829,2.829,0,1,1,.733-.1A2.8,2.8,0,0,1,319.618,369.545Zm.007-4.4a1.61,1.61,0,0,0-.412.054,1.583,1.583,0,1,0,1.2.159h0A1.568,1.568,0,0,0,319.626,365.145Zm14.105,28.834a2.815,2.815,0,1,1,2.812-2.814A2.815,2.815,0,0,1,333.731,393.98Zm0-4.4a1.584,1.584,0,1,0,1.583,1.583A1.584,1.584,0,0,0,333.731,389.582Zm14.112-20.039a2.812,2.812,0,1,1,1.4-.376h0a2.808,2.808,0,0,1-1.4.376Zm-.007-4.4a1.586,1.586,0,1,0,.412.054,1.619,1.619,0,0,0-.411-.054Z" transform="translate(18417.75 -2962.248)" fill="#2b5468"/>
  </g>
</svg>
