<svg xmlns="http://www.w3.org/2000/svg" width="38.02" height="38.802" viewBox="0 0 38.02 38.802">
  <g id="monthly-score-card" transform="translate(-18941 3284.561)">
    <path id="Path_1510" data-name="Path 1510" d="M551.92,630h7.834v3.132h-7.331" transform="translate(18404.951 -3893.202)" fill="none" stroke="#2b5468" stroke-linecap="round" stroke-linejoin="round" stroke-width="2"/>
    <path id="Path_1511" data-name="Path 1511" d="M352.143,441.936a3.132,3.132,0,0,1-3.086,2.6H327.132A3.132,3.132,0,0,1,324,441.406V417.132A3.132,3.132,0,0,1,327.132,414h.783" transform="translate(18618 -3691.297)" fill="none" stroke="#2b5468" stroke-linecap="round" stroke-linejoin="round" stroke-width="2"/>
    <path id="Path_1512" data-name="Path 1512" d="M696,414h.783a3.132,3.132,0,0,1,3.132,3.132v3.836" transform="translate(18270.273 -3691.297)" fill="none" stroke="#2b5468" stroke-linecap="round" stroke-linejoin="round" stroke-width="2"/>
    <path id="Path_1513" data-name="Path 1513" d="M393.9,483.142H371.98V462" transform="translate(18573.15 -3736.165)" fill="none" stroke="#2b5468" stroke-linecap="round" stroke-linejoin="round" stroke-width="2"/>
    <path id="Path_1514" data-name="Path 1514" d="M432.528,322.7a4.7,4.7,0,1,0-9.4,0h-1.566A1.566,1.566,0,0,0,420,324.264v4.7h15.66v-4.7a1.566,1.566,0,0,0-1.566-1.566Z" transform="translate(18528.264 -3601.561)" fill="none" stroke="#2b5468" stroke-linecap="round" stroke-linejoin="round" stroke-width="2"/>
    <ellipse id="Ellipse_43" data-name="Ellipse 43" cx="1.175" cy="1.175" rx="1.175" ry="1.175" transform="translate(18954.92 -3280.429)" fill="#2b5468"/>
    <path id="Path_1515" data-name="Path 1515" d="M744.379,726.405h0a2.153,2.153,0,0,0-.138,2.893l3.458,4.307a2.741,2.741,0,0,0,3.876,0h0a2.741,2.741,0,0,0,0-3.876l-4.307-3.458A2.153,2.153,0,0,0,744.379,726.405Z" transform="translate(18225.641 -3982.731)" fill="none" stroke="#2b5468" stroke-linecap="round" stroke-linejoin="round" stroke-width="2"/>
    <line id="Line_36" data-name="Line 36" x2="6.228" transform="translate(18949.828 -3267.901)" fill="none" stroke="#2b5468" stroke-linecap="round" stroke-linejoin="round" stroke-width="2"/>
    <line id="Line_37" data-name="Line 37" x2="4.9" transform="translate(18949.828 -3264.769)" fill="none" stroke="#2b5468" stroke-linecap="round" stroke-linejoin="round" stroke-width="2"/>
    <line id="Line_38" data-name="Line 38" x2="4.741" transform="translate(18949.828 -3261.636)" fill="none" stroke="#2b5468" stroke-linecap="round" stroke-linejoin="round" stroke-width="2"/>
    <ellipse id="Ellipse_44" data-name="Ellipse 44" cx="7.047" cy="7.047" rx="7.047" ry="7.047" transform="translate(18956.852 -3269.782)" fill="none" stroke="#2b5468" stroke-linecap="round" stroke-linejoin="round" stroke-width="2"/>
    <line id="Line_39" data-name="Line 39" x1="1.269" y1="1.297" transform="translate(18968.832 -3257.697)" fill="none" stroke="#2b5468" stroke-linecap="round" stroke-linejoin="round" stroke-width="2"/>
  </g>
</svg>
