<svg xmlns="http://www.w3.org/2000/svg" width="35.588" height="36.016" viewBox="0 0 35.588 36.016">
  <g id="portfolio-performance-icon" transform="translate(-19101.729 3406.202)">
    <path id="Path_1496" data-name="Path 1496" d="M183.267,363.347l-1.507,8.954a17.077,17.077,0,0,1-2-.02l1.988-11.809,1.517,2.876Zm1.838,3.482,1.518,2.876-.292,1.734a16.9,16.9,0,0,1-2.1.558Zm-7.712,5.123a17.112,17.112,0,0,1-1.914-.519L178,356.465l1.8.3.116.221Zm-6-2.528,2.3-13.679,1.946.328-2.428,14.421a16.914,16.914,0,0,1-1.823-1.065Zm-2.138-1.7a17.132,17.132,0,0,1-1.693-1.83l1.832-10.88,1.947.328-2.085,12.38Zm-3.613-4.819a17.007,17.007,0,0,1-1.369-3.758l.818-4.857,1.946.328Zm-2.4-9.615A17.771,17.771,0,0,0,188.285,371.4l-8.045-15.245Z" transform="translate(18938.615 -3743.188)" fill="#2b5468"/>
    <path id="Path_1497" data-name="Path 1497" d="M180.166,152.65l-16.274-2.74a17.305,17.305,0,0,1,28.38-8.482Zm3.5-16.4a18.24,18.24,0,0,0-20.811,13.93.47.47,0,0,0,.38.566l17,2.862a.467.467,0,0,0,.4-.119l12.641-11.718a.468.468,0,0,0,.006-.681,18.158,18.158,0,0,0-9.612-4.837Z" transform="translate(18938.881 -3542.2)" fill="#2b5468"/>
    <path id="Path_1498" data-name="Path 1498" d="M431.2,400.251a17.362,17.362,0,0,1-4.6,4.326L419.964,392l14.026,2.362A17.2,17.2,0,0,1,431.2,400.251Zm3.439-6.731-15.458-2.6a.469.469,0,0,0-.492.681l7.316,13.863a.467.467,0,0,0,.657.182,18.2,18.2,0,0,0,8.357-11.561.47.47,0,0,0-.38-.566Z" transform="translate(18702.283 -3777.989)" fill="#2b5468"/>
    <path id="Path_1499" data-name="Path 1499" d="M435.452,234.366l-.8,4.764-2.036-.342.357-2.122,2.48-2.3Zm2.427-2.251,2.48-2.3-1.682,9.993-2.035-.343,1.237-7.353Zm4.292-.9a17.045,17.045,0,0,1,1.463,3.409c.013.041.024.081.036.121l-.966,5.739-2.035-.343,1.5-8.929Zm2.776,10.337a17.728,17.728,0,0,0-3.961-13.252L429.5,238.955l15.451,2.6Z" transform="translate(18692.236 -3627.576)" fill="#2b5468"/>
  </g>
</svg>
