<svg xmlns="http://www.w3.org/2000/svg" width="32.232" height="35.994" viewBox="0 0 32.232 35.994">
  <g id="profitability" transform="translate(-19355 3305.355)">
    <path id="Path_1516" data-name="Path 1516" d="M231.781,264.924a.745.745,0,0,1,.525-.217h.735a1.287,1.287,0,0,1-.027-.258V253.711a1.245,1.245,0,0,1,1.245-1.245h.771a1.245,1.245,0,0,1,1.245,1.245v10.728a1.207,1.207,0,0,1-.027.258h1.537a1.205,1.205,0,0,1-.022-.258v-5.865a1.246,1.246,0,0,1,1.246-1.246h.77a1.246,1.246,0,0,1,1.246,1.246v5.865a1.284,1.284,0,0,1-.027.258h.735a.741.741,0,0,1,0,1.482H232.3a.742.742,0,0,1-.524-1.256Zm.662-16.619a.744.744,0,0,1,.525-.216H236.2a.741.741,0,0,1,0,1.482h-3.229a.742.742,0,0,1-.525-1.266Zm12.418,12.264a.74.74,0,0,1,.524-.217h5.257a.741.741,0,1,1,0,1.482h-5.257a.741.741,0,0,1-.524-1.265Zm0-3.024a.74.74,0,0,1,.524-.217h3.439a.741.741,0,1,1,0,1.482h-3.439a.741.741,0,0,1-.524-1.265ZM231.778,277.83h.838a1.476,1.476,0,0,1,.445-1.059,3.7,3.7,0,0,0,0-5.3,1.482,1.482,0,0,1,1.036-2.547h18.851V258.741a6.407,6.407,0,0,1-2.461-3.69h-4.144a3.264,3.264,0,0,1-3.261-3.262V244.62h-11.3A1.778,1.778,0,0,0,230,246.4v29.647a1.778,1.778,0,0,0,1.778,1.778Z" transform="translate(19125 -3547.192)" fill="#2b5468"/>
    <path id="Path_1517" data-name="Path 1517" d="M288.2,457.19H263.78a5.186,5.186,0,0,1,0,7.424H288.2a3.712,3.712,0,1,0,0-7.424Z" transform="translate(19095.316 -3733.976)" fill="#2b5468"/>
    <path id="Path_1518" data-name="Path 1518" d="M351.848,253.609h3.97a6.377,6.377,0,0,1,.991-3.421l-4.064-4.488a3.165,3.165,0,0,0-2.344-1.04h-.332v7.169A1.778,1.778,0,0,0,351.848,253.609Z" transform="translate(19019.496 -3547.227)" fill="#2b5468"/>
    <path id="Path_1519" data-name="Path 1519" d="M411.66,232.67h-.421a3.432,3.432,0,0,1,1-1.763,4.918,4.918,0,0,0,4.705,0,3.432,3.432,0,0,1,1,1.763h-.421a.741.741,0,1,0,0,1.482h.422a3.438,3.438,0,0,1-6.714,0h.422a.741.741,0,0,0,0-1.482Zm1.228-5.089a.462.462,0,0,1,.3-.121.415.415,0,0,1,.432.347.988.988,0,0,0,.607.667v-1.809a3.063,3.063,0,0,1-.437-.252,1.762,1.762,0,0,1-.352-.324,1.418,1.418,0,0,1-.234-.414,1.609,1.609,0,0,1,0-1.046,1.335,1.335,0,0,1,.243-.414,1.513,1.513,0,0,1,.353-.3,1.474,1.474,0,0,1,.422-.178v-.084c0-.3.121-.45.385-.45s.4.15.4.45v.085a1.583,1.583,0,0,1,.436.159,1.489,1.489,0,0,1,.371.277,1.3,1.3,0,0,1,.254.376,1.118,1.118,0,0,1,.093.455.451.451,0,0,1-.121.329.42.42,0,0,1-.314.131.328.328,0,0,1-.273-.1.786.786,0,0,1-.121-.229c-.028-.089-.059-.18-.1-.273a.4.4,0,0,0-.224-.216V226a4.908,4.908,0,0,1,.553.3,2.38,2.38,0,0,1,.455.364,1.6,1.6,0,0,1,.306.456,1.367,1.367,0,0,1,.113.563,1.886,1.886,0,0,1-.121.685,1.706,1.706,0,0,1-.2.37,1.3,1.3,0,0,1-.115.141,1.622,1.622,0,0,1-.456.343,1.863,1.863,0,0,1-.539.178v.178a.394.394,0,1,1-.788,0v-.188a2.173,2.173,0,0,1-.592-.211,1.954,1.954,0,0,1-.468-.343,1.237,1.237,0,0,1-.095-.1,1.583,1.583,0,0,1-.216-.329,1.111,1.111,0,0,1-.113-.479.417.417,0,0,1,.142-.342Zm1.712,10.751a4.918,4.918,0,0,0,3.545-8.33,4.9,4.9,0,0,0,1.32-2.669h-.742a.741.741,0,1,1,0-1.482h.742a4.92,4.92,0,0,0-9.728,0h.742a.741.741,0,1,1,0,1.482h-.742a4.9,4.9,0,0,0,1.32,2.669,4.9,4.9,0,0,0-1.32,2.669,4.92,4.92,0,0,0,4.863,5.661Z" transform="translate(18967.117 -3527.029)" fill="#2b5468"/>
  </g>
</svg>
