<svg xmlns="http://www.w3.org/2000/svg" width="14.807" height="19.745" viewBox="0 0 14.807 19.745">
  <g id="conpytrading-icon-dark" transform="translate(-1433.448 -2521.316)">
    <path id="Path_1009" data-name="Path 1009" d="M39.886,25.881l1.747.878" transform="translate(1403.471 2503.055)" fill="none" stroke="#d6df22" stroke-width="1" fill-rule="evenodd"/>
    <path id="Path_1010" data-name="Path 1010" d="M13.491,12a3.072,3.072,0,1,1-3.054,3.072A3.063,3.063,0,0,1,13.491,12Z" transform="translate(1424.732 2513.076)" fill="none" stroke="#d6df22" stroke-width="1" fill-rule="evenodd"/>
    <path id="Path_1011" data-name="Path 1011" d="M8.563,38.3a9.639,9.639,0,0,1-2.038,1.17l-.291,2.925H12.64" transform="translate(1427.766 2494.091)" fill="none" stroke="#d6df22" stroke-width="1" fill-rule="evenodd"/>
    <path id="Path_1012" data-name="Path 1012" d="M30.32,38.3l1.747.878" transform="translate(1410.377 2494.091)" fill="none" stroke="#d6df22" stroke-width="1" fill-rule="evenodd"/>
    <path id="Path_1013" data-name="Path 1013" d="M32.767,37.245,31.6,40.17H29.273" transform="translate(1411.133 2494.851)" fill="none" stroke="#d6df22" stroke-width="1" fill-rule="evenodd"/>
    <path id="Path_1014" data-name="Path 1014" d="M44.934,40.454l.873,1.755h2.621" transform="translate(1399.827 2492.534)" fill="none" stroke="#d6df22" stroke-width="1" fill-rule="evenodd"/>
    <path id="Path_1015" data-name="Path 1015" d="M37.19,51.871l-1.165.878,1.165,2.34-2.621-1.17-2.912,1.755.874-2.925-1.165-.585" transform="translate(1409.621 2484.291)" fill="none" stroke="#d6df22" stroke-width="1" fill-rule="evenodd"/>
    <path id="Path_1016" data-name="Path 1016" d="M0,.13A5.254,5.254,0,0,1,4.736,1.4a3.89,3.89,0,0,1,.73,4.555" transform="matrix(0.966, -0.259, 0.259, 0.966, 1436.285, 2523.552)" fill="none" stroke="#d6df22" stroke-width="1"/>
  </g>
</svg>
