<svg xmlns="http://www.w3.org/2000/svg" width="23.906" height="23.85" viewBox="0 0 23.906 23.85">
  <g id="exchangeaccount-icon-dark" transform="translate(-30 -391)">
    <g id="Group_132" data-name="Group 132" transform="translate(-130 254.437)">
      <path id="Path_129" data-name="Path 129" d="M183.448,498.074v-.656H189.8v.656h6.244v-.656H197v1.73H175.7v-1.73h1.583v.656Zm-8.3-.656v1.73a.549.549,0,0,0,.549.549H197a.549.549,0,0,0,.549-.549v-1.73a.549.549,0,0,0-.549-.549h-.959a.549.549,0,0,0-.549.549v.107h-5.147v-.107a.549.549,0,0,0-.549-.549h-6.348a.549.549,0,0,0-.549.549v.107h-5.068v-.107a.549.549,0,0,0-.549-.549H175.7a.549.549,0,0,0-.549.549Z" transform="translate(-14.396 -342.362)" fill="#d6df22"/>
      <path id="Path_130" data-name="Path 130" d="M183.357,564.052H160.549v-1.567h22.808v1.567Zm.549-1.567a.549.549,0,0,0-.549-.549H160.549a.549.549,0,0,0-.549.549v1.567a.549.549,0,0,0,.549.549h22.808a.549.549,0,0,0,.549-.549v-1.567Z" transform="translate(0 -404.188)" fill="#d6df22"/>
      <path id="Path_131" data-name="Path 131" d="M230.6,309h-1.156v-8.517H230.6V309Zm-1.156-9.065a.549.549,0,0,0-.549.549V309a.549.549,0,0,0,.549.549H230.6a.549.549,0,0,0,.549-.549v-8.517a.549.549,0,0,0-.549-.549Z" transform="translate(-65.462 -155.231)" fill="#d6df22"/>
      <path id="Path_132" data-name="Path 132" d="M286.294,310.258h-1.156v-8.466h1.156v8.466Zm-1.156-9.015a.549.549,0,0,0-.549.549v8.466a.549.549,0,0,0,.549.549h1.156a.549.549,0,0,0,.549-.549v-8.466a.549.549,0,0,0-.549-.549Z" transform="translate(-118.384 -156.478)" fill="#d6df22"/>
      <path id="Path_133" data-name="Path 133" d="M479.988,308.846h-1.156V300.33h1.156v8.517Zm-1.156-9.065a.549.549,0,0,0-.549.549v8.517a.549.549,0,0,0,.549.549h1.156a.549.549,0,0,0,.549-.549V300.33a.549.549,0,0,0-.549-.549Z" transform="translate(-302.431 -155.089)" fill="#d6df22"/>
      <path id="Path_134" data-name="Path 134" d="M535.683,310.108h-1.156v-8.466h1.156v8.466Zm-1.156-9.015a.549.549,0,0,0-.549.549v8.466a.549.549,0,0,0,.549.549h1.156a.549.549,0,0,0,.549-.549v-8.466a.549.549,0,0,0-.549-.549Z" transform="translate(-355.353 -156.336)" fill="#d6df22"/>
      <path id="Path_135" data-name="Path 135" d="M187.31,142.78l9.665-5.612a.416.416,0,0,1,.416,0l9.831,5.612a.417.417,0,0,1-.207.779h-.142V142.9h-6.244v.654h-6.348V142.9h-6.165v.654h-.6a.417.417,0,0,1-.21-.777Zm-.723.612a.955.955,0,0,0,.933.715h.6a.551.551,0,0,0,.55-.55v-.106h5.068v.106a.551.551,0,0,0,.55.55h6.346a.551.551,0,0,0,.55-.55v-.106h5.147v.106a.551.551,0,0,0,.55.55h.141a.966.966,0,0,0,.479-1.8l-9.831-5.612a.965.965,0,0,0-.964,0l-9.665,5.612a.955.955,0,0,0-.448,1.086Z" transform="translate(-25.23 0)" fill="#d6df22"/>
    </g>
    <path id="iconmonstr-bitcoin-1" d="M5.246,6.738V5.89H4.965v.848H4.4V5.89h-1.4l.14-.836h.3a.434.434,0,0,0,.39-.479v-2.5a.36.36,0,0,0-.383-.394H3V.842H4.4V0h.562V.842h.281V0h.562V.857C7.019.9,7.5,1.357,7.636,1.875a1.067,1.067,0,0,1-.588,1.251,1.194,1.194,0,0,1,1,1.137C8.054,5.241,7.3,5.9,5.808,5.9v.842Zm-.281-3.09V5.054c1.114,0,1.878-.105,1.878-.706C6.843,3.7,6.018,3.648,4.965,3.648Zm0-.56c.621,0,1.566-.044,1.566-.7,0-.562-.583-.7-1.566-.7Z" transform="translate(36.981 400.704)" fill="#d6df22"/>
  </g>
</svg>
