<svg xmlns="http://www.w3.org/2000/svg" width="213" height="42.103" viewBox="0 0 213 42.103">
  <g id="logo" transform="translate(117.078 -104.17)">
    <g id="_.live" data-name=".live" transform="translate(75.119 138.085)">
      <path id="Path_888" data-name="Path 888" d="M694.656,328a.748.748,0,0,1,.768.756v.107a.792.792,0,0,1-1.544,0v-.107a.748.748,0,0,1,.776-.756Z" transform="translate(-693.88 -321.507)" fill="#fff"/>
      <path id="Path_889" data-name="Path 889" d="M701.85,312.257a.653.653,0,0,1,.657-.657.665.665,0,0,1,.669.657v6.793a.665.665,0,0,1-1.326,0Z" transform="translate(-698.695 -311.6)" fill="#fff"/>
      <path id="Path_890" data-name="Path 890" d="M709.51,312.4a.764.764,0,0,1,1.512,0v.067a.764.764,0,0,1-1.512,0Zm.1,2.161a.653.653,0,0,1,.657-.669.665.665,0,0,1,.669.669v4.576a.665.665,0,0,1-1.326,0Z" transform="translate(-703.322 -311.689)" fill="#fff"/>
      <path id="Path_891" data-name="Path 891" d="M719.257,323.128h-.063a.819.819,0,0,1-.756-.578l-1.928-4.418a.955.955,0,0,1-.079-.329.673.673,0,0,1,1.314-.154l1.493,3.836,1.512-3.856a.653.653,0,0,1,.622-.459.633.633,0,0,1,.649.633.726.726,0,0,1-.079.317l-1.928,4.43A.839.839,0,0,1,719.257,323.128Z" transform="translate(-707.503 -314.965)" fill="#fff"/>
      <path id="Path_892" data-name="Path 892" d="M735.315,323.067a2.886,2.886,0,0,1-2.969-3v-.02a2.88,2.88,0,0,1,2.827-3.013,2.734,2.734,0,0,1,2.747,2.846.622.622,0,0,1-.626.637h-3.626a1.615,1.615,0,0,0,1.667,1.469,2.07,2.07,0,0,0,1.37-.507.5.5,0,0,1,.34-.119.523.523,0,0,1,.526.538.582.582,0,0,1-.178.4A2.961,2.961,0,0,1,735.315,323.067Zm1.314-3.428a1.5,1.5,0,0,0-1.469-1.524,1.564,1.564,0,0,0-1.5,1.524Z" transform="translate(-717.117 -314.88)" fill="#fff"/>
    </g>
    <g id="TraderPro" transform="translate(-43.461 111.152)">
      <path id="Path_893" data-name="Path 893" d="M401.332,249.571h-5.174a1.734,1.734,0,1,1,0-3.464h14.129a1.734,1.734,0,0,1,0,3.464h-5.194v16.108a1.884,1.884,0,1,1-3.769,0Z" transform="translate(-394.341 -245.1)" fill="#fff"/>
      <path id="Path_894" data-name="Path 894" d="M439.079,260.664a1.817,1.817,0,0,1,1.821-1.857,1.845,1.845,0,0,1,1.853,1.857V262.3c.851-2.007,2.435-3.523,4.042-3.523a1.809,1.809,0,0,1,.368,3.583c-2.617.459-4.41,2.462-4.41,6.263v4.75A1.833,1.833,0,0,1,440.9,275.2a1.809,1.809,0,0,1-1.821-1.825Z" transform="translate(-421.368 -252.757)" fill="#fff"/>
      <path id="Path_895" data-name="Path 895" d="M463.33,270.435v-.071c0-3.464,2.7-5.146,6.627-5.146a13.384,13.384,0,0,1,4.315.669v-.4c0-2.276-1.4-3.492-3.982-3.492a9.5,9.5,0,0,0-3.563.637,2.132,2.132,0,0,1-.578.091,1.528,1.528,0,0,1-1.548-1.52,1.584,1.584,0,0,1,1-1.457,13.74,13.74,0,0,1,5.166-.942,7.184,7.184,0,0,1,5.317,1.793,6.641,6.641,0,0,1,1.734,4.952v7.918a1.754,1.754,0,0,1-1.793,1.762,1.661,1.661,0,0,1-1.793-1.552v-.606a6.516,6.516,0,0,1-5.225,2.34C466.006,275.388,463.33,273.654,463.33,270.435Zm11-1.156v-1.093a10.12,10.12,0,0,0-3.646-.641c-2.375,0-3.769,1.006-3.769,2.676v.059c0,1.552,1.37,2.431,3.131,2.431C472.479,272.712,474.331,271.314,474.331,269.279Z" transform="translate(-436.019 -252.774)" fill="#fff"/>
      <path id="Path_896" data-name="Path 896" d="M522.755,264.173a1.841,1.841,0,0,1-3.678,0v-1a6.43,6.43,0,0,1-5.471,3.009c-3.769,0-7.446-3.009-7.446-8.313V257.8c0-5.317,3.618-8.313,7.446-8.313a6.565,6.565,0,0,1,5.471,2.827v-7a1.841,1.841,0,0,1,3.678,0Zm-12.886-6.382v.063c0,3.1,2.126,5.146,4.62,5.146a4.815,4.815,0,0,0,4.648-5.146v-.063a4.823,4.823,0,0,0-4.648-5.146C511.968,252.657,509.869,254.6,509.869,257.791Z" transform="translate(-461.894 -243.566)" fill="#fff"/>
      <path id="Path_897" data-name="Path 897" d="M562.914,275.24a8,8,0,0,1-8.234-8.313v-.059c0-4.588,3.25-8.357,7.838-8.357,5.107,0,7.629,4.192,7.629,7.917a1.718,1.718,0,0,1-1.734,1.762H558.37a4.481,4.481,0,0,0,4.616,4.074,5.788,5.788,0,0,0,3.8-1.4,1.362,1.362,0,0,1,.942-.336,1.445,1.445,0,0,1,1.457,1.488,1.6,1.6,0,0,1-.483,1.124A8.254,8.254,0,0,1,562.914,275.24Zm3.646-9.5c-.241-2.375-1.639-4.224-4.07-4.224-2.253,0-3.832,1.73-4.165,4.224Z" transform="translate(-491.206 -252.594)" fill="#fff"/>
      <path id="Path_898" data-name="Path 898" d="M600.429,260.664a1.817,1.817,0,0,1,1.821-1.857,1.845,1.845,0,0,1,1.853,1.857V262.3c.851-2.007,2.435-3.523,4.042-3.523a1.809,1.809,0,0,1,.364,3.583c-2.613.459-4.406,2.462-4.406,6.263v4.751a1.833,1.833,0,0,1-1.853,1.825,1.809,1.809,0,0,1-1.821-1.825Z" transform="translate(-518.844 -252.757)" fill="#fff"/>
      <path id="Path_899" data-name="Path 899" d="M630.36,247.994a1.857,1.857,0,0,1,1.884-1.884h6.5c4.984,0,8.084,2.827,8.084,7.126v.063c0,4.75-3.828,7.26-8.511,7.26H634.1v5.146a1.869,1.869,0,0,1-3.737,0Zm8.084,9.176c2.826,0,4.588-1.583,4.588-3.8v-.063c0-2.49-1.793-3.8-4.588-3.8h-4.355v7.656Z" transform="translate(-536.925 -245.103)" fill="#d6df22"/>
      <path id="Path_900" data-name="Path 900" d="M677.714,260.664a1.821,1.821,0,0,1,1.825-1.857,1.845,1.845,0,0,1,1.853,1.857V262.3c.851-2.007,2.431-3.523,4.042-3.523a1.809,1.809,0,0,1,.364,3.583c-2.613.463-4.41,2.462-4.41,6.263v4.75a1.833,1.833,0,0,1-1.853,1.825,1.813,1.813,0,0,1-1.825-1.825Z" transform="translate(-565.531 -252.757)" fill="#d6df22"/>
      <path id="Path_901" data-name="Path 901" d="M703,266.918v-.059a8.557,8.557,0,0,1,17.11-.075v.063a8.39,8.39,0,0,1-8.6,8.357A8.277,8.277,0,0,1,703,266.918Zm13.432,0v-.059a4.959,4.959,0,0,0-4.925-5.166,4.847,4.847,0,0,0-4.83,5.1v.063a4.955,4.955,0,0,0,4.893,5.146,4.83,4.83,0,0,0,4.854-5.087Z" transform="translate(-580.809 -252.57)" fill="#d6df22"/>
    </g>
    <path id="Path_905" data-name="Path 905" d="M576.744,277.6c1.4,7.1-2.637,7.749-4.949,7.7H556.16a15.364,15.364,0,0,1,5.774,6.269h10.724C588.026,291.589,576.744,277.6,576.744,277.6Z" transform="translate(-632.956 -173.427)" fill="#fff"/>
    <path id="Path_906" data-name="Path 906" d="M197.909,285.268h-23.45c-2.318.052-6.356-.6-4.955-7.7,0,0-11.282,13.989,4.09,13.965h24.33a6.8,6.8,0,1,1-4.623,1.823h-7.461a13.051,13.051,0,1,0,12.07-8.09Z" transform="translate(-282.59 -173.4)" fill="#fff"/>
    <path id="Path_907" data-name="Path 907" d="M361.493,430.73c.016-.015.031-.034.048-.049h-7.457a13.045,13.045,0,0,0-.55,8.307A13.37,13.37,0,0,1,361.493,430.73Z" transform="translate(-450.835 -310.722)" fill="#1d1d1b" opacity="0.48"/>
  </g>
</svg>
