<svg xmlns="http://www.w3.org/2000/svg" width="450" height="200" viewBox="0 0 450 200">
  <g id="passport" transform="translate(-440 -506)">
    <g id="Rectangle_205" data-name="Rectangle 205" transform="translate(440 506)" fill="#fff" stroke="#dadada" stroke-width="1" stroke-dasharray="5">
      <rect width="450" height="200" stroke="none"/>
      <rect x="0.5" y="0.5" width="449" height="199" fill="none"/>
    </g>
    <g id="Group_108" data-name="Group 108" transform="translate(0 -12)">
      <text id="Upload_Passport" data-name="Upload Passport" transform="translate(615 646.799)" fill="#dadada" font-size="14" font-family="Lato-Regular, Lato"><tspan x="0" y="0">Upload Passport</tspan></text>
      <path id="Path_109" data-name="Path 109" d="M10.125,26.522A7.007,7.007,0,0,1,8.558,12.66,8.774,8.774,0,0,1,15.4,2.243,8.9,8.9,0,0,1,25.97,8.981h.178a8.76,8.76,0,0,1,1.78,17.365M24.367,21.26,19.026,16m0,0L13.685,21.26M19.026,16V37.046" transform="translate(646.504 584.954)" fill="none" stroke="#dadada" stroke-linecap="round" stroke-linejoin="round" stroke-width="2"/>
    </g>
  </g>
</svg>
