<svg xmlns="http://www.w3.org/2000/svg" width="14.636" height="18.051" viewBox="0 0 14.636 18.051">
  <g id="pricecomparison-icon-dark" transform="translate(-26.149 -12.69)">
    <path id="Path_1290" data-name="Path 1290" d="M310.408,232.561h6.778a.349.349,0,1,1,0,.7h-6.778a.349.349,0,0,1,0-.7Zm0-2.139h6.778a.349.349,0,1,1,0,.7h-6.778a.349.349,0,0,1,0-.7Zm0-2.139h6.778a.349.349,0,1,1,0,.7h-6.778a.349.349,0,0,1,0-.7Zm0-2.139h6.778a.349.349,0,0,1,0,.7h-6.778a.349.349,0,1,1,0-.7Zm-1.5,11.191h9.786a.9.9,0,0,0,.9-.9V222.112a.9.9,0,0,0-.9-.9H311.4a3.776,3.776,0,0,1-3.4,4.721v10.5a.9.9,0,0,0,.9.9Z" transform="translate(-278.807 -206.596)" fill="#d6df22" fill-rule="evenodd"/>
    <path id="Subtraction_1" data-name="Subtraction 1" d="M3.045,6.088h0a3.053,3.053,0,1,1,1.186-.242A3.04,3.04,0,0,1,3.045,6.088ZM2.3,3.38l-.573.043v.1a1.134,1.134,0,0,0,.177.6,1.069,1.069,0,0,0,.478.405,1.478,1.478,0,0,0,.3.1l0,.411.782.01V4.631a1.361,1.361,0,0,0,.275-.087,1.021,1.021,0,0,0,.446-.366.923.923,0,0,0,.161-.51.856.856,0,0,0-.139-.491,1.025,1.025,0,0,0-.421-.358A4.049,4.049,0,0,0,3.1,2.61a1.438,1.438,0,0,1-.557-.2.24.24,0,0,1-.081-.191.3.3,0,0,1,.131-.24.731.731,0,0,1,.443-.105h.024l.048,0A.72.72,0,0,1,3.519,2a.521.521,0,0,1,.168.368l.01.1.586-.031v-.1a1.026,1.026,0,0,0-.16-.532.96.96,0,0,0-.439-.364,1.446,1.446,0,0,0-.171-.06L3.519.978,2.737.968v.377a1.431,1.431,0,0,0-.279.078.909.909,0,0,0-.432.337.871.871,0,0,0-.153.484.787.787,0,0,0,.118.434A.928.928,0,0,0,2.349,3a2.872,2.872,0,0,0,.6.2,5.015,5.015,0,0,1,.526.15A.525.525,0,0,1,3.7,3.5a.3.3,0,0,1,.059.191.338.338,0,0,1-.07.2.465.465,0,0,1-.217.149,1.042,1.042,0,0,1-.342.058H3.1a1.06,1.06,0,0,1-.422-.087.581.581,0,0,1-.258-.2.733.733,0,0,1-.1-.33L2.3,3.38Z" transform="translate(26.149 12.69)" fill="#d6df22"/>
  </g>
</svg>
