<svg xmlns="http://www.w3.org/2000/svg" width="17.924" height="15.5" viewBox="0 0 17.924 15.5">
  <g id="signalprovider-icon-dark" transform="translate(-30 -315)">
    <path id="Path_754" data-name="Path 754" d="M75.831,70.649v-.036a.8.8,0,0,0,.393-.684c0-.631-.469-.9-1.077-.9v-.469a.078.078,0,0,0-.078-.078H74.8a.078.078,0,0,0-.078.078v.469h-.277v-.469a.078.078,0,0,0-.078-.078h-.273a.078.078,0,0,0-.078.078v.469h-.8a.078.078,0,0,0-.078.078v.508a.078.078,0,0,0,.078.078h.363v2.247h-.363a.078.078,0,0,0-.078.078v.508a.078.078,0,0,0,.078.078h.8v.441a.078.078,0,0,0,.078.078h.273a.078.078,0,0,0,.078-.078V72.6h.277v.441a.078.078,0,0,0,.078.078h.273a.078.078,0,0,0,.078-.078V72.6h.009a1.125,1.125,0,0,0,1.219-1.087A.886.886,0,0,0,75.831,70.649Zm-.765-.945a.317.317,0,0,1,.357.326.337.337,0,0,1-.383.352h-.616a.078.078,0,0,1-.078-.078v-.522a.078.078,0,0,1,.078-.078Zm.016,2.214h-.657a.078.078,0,0,1-.078-.078v-.757A.078.078,0,0,1,74.425,71h.657a.458.458,0,1,1,0,.913Z" transform="translate(-35.791 257.378)" fill="#d6df22"/>
    <path id="SignalPro" d="M17.3,5.219a1.127,1.127,0,0,1-1.235-.374A10.261,10.261,0,0,0,2.208,4.587c-.148.129-.285.271-.435.4A1.013,1.013,0,1,1,.387,3.508,11.154,11.154,0,0,1,4.666.792,12.166,12.166,0,0,1,17.472,3.381C18.189,4.024,18.087,4.929,17.3,5.219ZM9.046,3.706A8.806,8.806,0,0,1,15.1,6.1a1.069,1.069,0,0,1,.213,1.593c-.439.46-1,.417-1.614-.123a6.9,6.9,0,0,0-9.457.046,1.027,1.027,0,1,1-1.4-1.472A8.822,8.822,0,0,1,9.046,3.706Zm0,3.309a5.542,5.542,0,0,1,3.7,1.445A1.057,1.057,0,0,1,12.975,10a1.039,1.039,0,0,1-1.561-.018A3.524,3.524,0,0,0,6.59,9.976c-.582.483-1.142.5-1.561.04a1.043,1.043,0,0,1,.2-1.541A5.6,5.6,0,0,1,9.046,7.015Z" transform="translate(29.969 315)" fill="#d6df22" fill-rule="evenodd"/>
  </g>
</svg>
