<svg xmlns="http://www.w3.org/2000/svg" width="23.756" height="15.146" viewBox="0 0 23.756 15.146">
  <g id="tradeterminal-icon-dark" transform="translate(-22 -317.354)">
    <g id="Group_123" data-name="Group 123" transform="translate(-8.096 258.111)">
      <path id="Path_113" data-name="Path 113" d="M53.641,71.441a.228.228,0,0,0-.2-.123H52.292V60.3a.877.877,0,0,0-.875-.875H32.531a.876.876,0,0,0-.875.875V71.318H30.509a.229.229,0,0,0-.188.36l.619.9a3.765,3.765,0,0,0,3.1,1.629H49.907a3.766,3.766,0,0,0,3.1-1.629l.619-.9A.23.23,0,0,0,53.641,71.441Zm-9.416.671a.4.4,0,0,1-.343.19H39.955a.4.4,0,0,1-.343-.19l-.208-.335h5.029ZM32.114,60.3a.417.417,0,0,1,.417-.416H51.417a.416.416,0,0,1,.416.416V71.318H32.114Z" fill="#d6df22"/>
      <rect id="Rectangle_238" data-name="Rectangle 238" width="1.926" height="3.99" rx="0.229" transform="translate(33.934 66.012)" fill="#d6df22"/>
      <rect id="Rectangle_239" data-name="Rectangle 239" width="1.926" height="6.864" rx="0.229" transform="translate(36.523 63.138)" fill="#d6df22"/>
      <rect id="Rectangle_240" data-name="Rectangle 240" width="1.926" height="6.022" rx="0.229" transform="translate(39.113 63.98)" fill="#d6df22"/>
      <rect id="Rectangle_241" data-name="Rectangle 241" width="1.926" height="8.803" rx="0.229" transform="translate(41.702 61.2)" fill="#d6df22"/>
      <rect id="Rectangle_242" data-name="Rectangle 242" width="1.926" height="7.318" rx="0.229" transform="translate(44.292 62.684)" fill="#d6df22"/>
      <rect id="Rectangle_243" data-name="Rectangle 243" width="1.926" height="8.401" rx="0.229" transform="translate(46.882 61.601)" fill="#d6df22"/>
    </g>
    <path id="Path_125" data-name="Path 125" d="M34.408,73.286a3.214,3.214,0,0,1-2.647-1.39L31.49,71.5h7.69l.331.533a.949.949,0,0,0,.811.451H44.25a.949.949,0,0,0,.811-.451l.331-.533h7.8l-.272.394a3.212,3.212,0,0,1-2.646,1.39Z" transform="translate(-8.096 258.111)" fill="#d6df22"/>
    <rect id="Rectangle_252" data-name="Rectangle 252" width="0.824" height="2.888" transform="translate(26.756 324.307)" fill="#fafafa"/>
    <rect id="Rectangle_253" data-name="Rectangle 253" width="0.824" height="5.762" transform="translate(29.346 321.433)" fill="#fafafa"/>
    <rect id="Rectangle_254" data-name="Rectangle 254" width="0.824" height="4.919" transform="translate(31.935 322.275)" fill="#fafafa"/>
    <rect id="Rectangle_255" data-name="Rectangle 255" width="0.824" height="7.7" transform="translate(34.525 319.494)" fill="#fafafa"/>
    <rect id="Rectangle_256" data-name="Rectangle 256" width="0.824" height="6.215" transform="translate(37.115 320.979)" fill="#fafafa"/>
    <rect id="Rectangle_257" data-name="Rectangle 257" width="0.824" height="7.299" transform="translate(39.704 319.896)" fill="#fafafa"/>
    <g id="Group_124" data-name="Group 124" transform="translate(-8.096 258.111)">
      <path id="Path_115" data-name="Path 115" d="M49.907,74.389H34.04a3.949,3.949,0,0,1-3.251-1.708l-.62-.9a.414.414,0,0,1,.34-.648h.963V60.3a1.06,1.06,0,0,1,1.059-1.058H51.417A1.06,1.06,0,0,1,52.476,60.3V71.134h.962a.413.413,0,0,1,.366.221h0a.411.411,0,0,1-.026.427l-.619.9A3.95,3.95,0,0,1,49.907,74.389ZM30.509,71.5a.045.045,0,0,0-.037.071l.619.9a3.582,3.582,0,0,0,2.949,1.549H49.907a3.58,3.58,0,0,0,2.949-1.549l.62-.9a.047.047,0,0,0,0-.047h0a.046.046,0,0,0-.041-.024H52.292a.184.184,0,0,1-.184-.184V60.3a.692.692,0,0,0-.691-.691H32.531a.693.693,0,0,0-.692.691V71.318a.184.184,0,0,1-.183.184Zm13.373.984H39.955a.585.585,0,0,1-.5-.277l-.208-.335a.183.183,0,0,1,.156-.281h5.029a.183.183,0,0,1,.156.281l-.208.335A.585.585,0,0,1,43.882,72.486Zm-4.148-.526.034.055a.218.218,0,0,0,.187.1h3.927a.218.218,0,0,0,.187-.1h0l.034-.055Zm12.1-.458H32.114a.184.184,0,0,1-.183-.184V60.3a.6.6,0,0,1,.6-.6H51.417a.6.6,0,0,1,.6.6V71.318A.184.184,0,0,1,51.833,71.5ZM32.3,71.134H51.65V60.3a.233.233,0,0,0-.233-.232H32.531a.232.232,0,0,0-.233.232Z" fill="#d6df22"/>
      <path id="Path_116" data-name="Path 116" d="M35.63,70.186H34.163a.413.413,0,0,1-.413-.413V66.242a.413.413,0,0,1,.413-.413H35.63a.413.413,0,0,1,.413.413v3.531A.413.413,0,0,1,35.63,70.186ZM34.163,66.2a.046.046,0,0,0-.046.046v3.531a.046.046,0,0,0,.046.045H35.63a.046.046,0,0,0,.046-.045V66.242a.046.046,0,0,0-.046-.046Z" fill="#d6df22"/>
      <path id="Path_117" data-name="Path 117" d="M38.22,70.186H36.753a.413.413,0,0,1-.413-.413V63.367a.413.413,0,0,1,.413-.413H38.22a.413.413,0,0,1,.413.413v6.406A.413.413,0,0,1,38.22,70.186Zm-1.467-6.864a.045.045,0,0,0-.046.045v6.406a.045.045,0,0,0,.046.045H38.22a.046.046,0,0,0,.046-.045V63.367a.046.046,0,0,0-.046-.045Z" fill="#d6df22"/>
      <path id="Path_118" data-name="Path 118" d="M40.81,70.186H39.342a.413.413,0,0,1-.413-.413V64.21a.414.414,0,0,1,.413-.414H40.81a.415.415,0,0,1,.413.414v5.563A.414.414,0,0,1,40.81,70.186Zm-1.468-6.022a.045.045,0,0,0-.045.046v5.563a.045.045,0,0,0,.045.045H40.81a.045.045,0,0,0,.045-.045V64.21a.045.045,0,0,0-.045-.046Z" fill="#d6df22"/>
      <path id="Path_119" data-name="Path 119" d="M43.4,70.186H41.932a.413.413,0,0,1-.413-.413V61.429a.413.413,0,0,1,.413-.413H43.4a.413.413,0,0,1,.413.413v8.344A.413.413,0,0,1,43.4,70.186Zm-1.467-8.8a.047.047,0,0,0-.046.046v8.344a.046.046,0,0,0,.046.045H43.4a.046.046,0,0,0,.046-.045V61.429a.047.047,0,0,0-.046-.046Z" fill="#d6df22"/>
      <path id="Path_120" data-name="Path 120" d="M45.989,70.186H44.521a.414.414,0,0,1-.413-.413V62.914a.414.414,0,0,1,.413-.413h1.468a.413.413,0,0,1,.413.413v6.859A.413.413,0,0,1,45.989,70.186Zm-1.468-7.318a.046.046,0,0,0-.045.046v6.859a.045.045,0,0,0,.045.045h1.468a.045.045,0,0,0,.045-.045V62.914a.046.046,0,0,0-.045-.046Z" fill="#d6df22"/>
      <path id="Path_121" data-name="Path 121" d="M48.579,70.186H47.111a.413.413,0,0,1-.413-.413V61.83a.414.414,0,0,1,.413-.413h1.468a.414.414,0,0,1,.413.413v7.943A.414.414,0,0,1,48.579,70.186Zm-1.468-8.4a.046.046,0,0,0-.046.045v7.943a.046.046,0,0,0,.046.045h1.468a.045.045,0,0,0,.045-.045V61.83a.045.045,0,0,0-.045-.045Z" fill="#d6df22"/>
    </g>
  </g>
</svg>
